<svg width="20px" height="20px" viewBox="0 0 20 20" version="1.1" xmlns="http://www.w3.org/2000/svg" xmlns:xlink="http://www.w3.org/1999/xlink">
    <title>Icon/heart_outline</title>
    <defs>
        <path d="M13.4785,3 C12.2985,3 10.9815,3.913 9.9995,4.883 C8.9855,3.913 7.7105,3.005 6.4905,3.005 C5.2975,3.005 4.2455,3.351 3.3695,4.201 C1.5435,5.97 1.5435,8.837 3.3695,10.606 C3.8905,11.112 8.9495,16.577 8.9495,16.577 C9.2385,16.858 9.6165,16.997 9.9945,16.997 C10.3715,16.997 10.7495,16.858 11.0385,16.577 C11.0385,16.577 16.5725,10.777 16.6305,10.719 C18.4575,8.949 18.4575,6.082 16.6305,4.314 C15.7255,3.436 14.7125,3 13.4785,3 M13.4785,5 C14.1695,5 14.6965,5.224 15.2395,5.751 C15.7305,6.226 15.9995,6.852 15.9995,7.515 C16.0005,8.179 15.7305,8.807 15.2225,9.299 C15.1985,9.324 15.1465,9.375 9.9995,14.767 C8.6345,13.293 5.2335,9.628 4.7605,9.169 C4.2705,8.694 3.9995,8.067 3.9995,7.403 C3.9995,6.74 4.2705,6.113 4.7625,5.636 C5.2115,5.2 5.7455,5.005 6.4905,5.005 C6.8335,5.005 7.5965,5.352 8.6175,6.328 L10.0215,7.671 L11.4055,6.306 C12.3755,5.348 13.1765,5 13.4785,5" id="path-1"></path>
    </defs>
    <g id="Icon/heart_outline" stroke="none" stroke-width="1" fill="none" fill-rule="evenodd">
        <mask id="mask-2" fill="white">
            <use xlink:href="#path-1"></use>
        </mask>
        <use id="Path" fill="#3e7fee" fill-rule="nonzero" xlink:href="#path-1"></use>
    </g>
</svg>