<?xml version="1.0" encoding="UTF-8"?>
<svg width="20px" height="20px" viewBox="0 0 20 20" version="1.1" xmlns="http://www.w3.org/2000/svg" xmlns:xlink="http://www.w3.org/1999/xlink">
    <title>Icon/search</title>
    <g id="Icon/search" stroke="none" stroke-width="1" fill="none" fill-rule="evenodd">
        <path d="M7.68571429,1 C9.45887886,1 11.159416,1.70438526 12.4132343,2.95820457 C13.6670629,4.21201257 14.3714286,5.91254971 14.3714286,7.68571429 C14.3714286,9.34171429 13.7645714,10.864 12.7668571,12.0365714 L13.0445714,12.3142857 L13.8571429,12.3142857 L19,17.4571429 L17.4571429,19 L12.3142857,13.8571429 L12.3142857,13.0445714 L12.0365714,12.7668571 C10.864,13.7645714 9.34171429,14.3714286 7.68571429,14.3714286 C5.91254971,14.3714286 4.21201257,13.6670629 2.95820457,12.4132343 C1.70438526,11.159416 1,9.45887886 1,7.68571429 C1,5.91254971 1.70438526,4.21201257 2.95820457,2.95820457 C4.21201257,1.70438526 5.91254971,1 7.68571429,1 Z M7.68571429,3.05714286 C5.11428571,3.05714286 3.05714286,5.11428571 3.05714286,7.68571429 C3.05714286,10.2571429 5.11428571,12.3142857 7.68571429,12.3142857 C10.2571429,12.3142857 12.3142857,10.2571429 12.3142857,7.68571429 C12.3142857,5.11428571 10.2571429,3.05714286 7.68571429,3.05714286 Z" id="Shape" fill="#000000" fill-rule="nonzero"></path>
    </g>
</svg>