<?xml version="1.0" encoding="UTF-8"?>
<svg width="162px" height="40px" viewBox="0 0 162 40" version="1.1" xmlns="http://www.w3.org/2000/svg" xmlns:xlink="http://www.w3.org/1999/xlink">
    <title>9F37DE5F-A0B6-479C-9261-FE84F7D036DB</title>
    <g id="Page-1" stroke="none" stroke-width="1" fill="none" fill-rule="evenodd">
        <g id="GUI" transform="translate(-280.000000, -20.000000)">
            <g id="Logo-Bookyard-by-CePixel" transform="translate(280.000000, 20.000000)">
                <path d="M32,0 C36.418278,-8.11624501e-16 40,3.581722 40,8 L40,32 C40,36.418278 36.418278,40 32,40 L8,40 C3.581722,40 5.41083001e-16,36.418278 0,32 L0,8 C-5.41083001e-16,3.581722 3.581722,8.11624501e-16 8,0 L32,0 Z M32,8 L22,8 L22,22 L27,17 L32,22 L32,8 Z" id="Sygnet" fill="#2D70F3"></path>
                <g id="Bookyard" transform="translate(53.886719, 8.726562)" fill="#222222" fill-rule="nonzero">
                    <path d="M3.4453125,3 L3.4453125,6.80859375 L7.6875,6.80859375 C8.4453125,6.80859375 9.06054688,6.66601562 9.53320312,6.38085938 C10.0058594,6.09570312 10.2421875,5.58984375 10.2421875,4.86328125 C10.2421875,4.05859375 9.9296875,3.52734375 9.3046875,3.26953125 C8.765625,3.08984375 8.078125,3 7.2421875,3 L3.4453125,3 Z M3.4453125,9.66796875 L3.4453125,14.2734375 L7.6875,14.2734375 C8.4453125,14.2734375 9.03515625,14.171875 9.45703125,13.96875 C10.2226562,13.59375 10.6054688,12.875 10.6054688,11.8125 C10.6054688,10.9140625 10.234375,10.296875 9.4921875,9.9609375 C9.078125,9.7734375 8.49609375,9.67578125 7.74609375,9.66796875 L3.4453125,9.66796875 Z M8.390625,0 C10.5078125,0.03125 12.0078125,0.64453125 12.890625,1.83984375 C13.421875,2.57421875 13.6875,3.453125 13.6875,4.4765625 C13.6875,5.53125 13.421875,6.37890625 12.890625,7.01953125 C12.59375,7.37890625 12.15625,7.70703125 11.578125,8.00390625 C12.4609375,8.32421875 13.1269531,8.83203125 13.5761719,9.52734375 C14.0253906,10.2226562 14.25,11.0664062 14.25,12.0585938 C14.25,13.0820312 13.9921875,14 13.4765625,14.8125 C13.1484375,15.3515625 12.7382812,15.8046875 12.2460938,16.171875 C11.6914062,16.59375 11.0371094,16.8828125 10.2832031,17.0390625 C9.52929688,17.1953125 8.7109375,17.2734375 7.828125,17.2734375 L0,17.2734375 L0,0 L8.390625,0 Z" id="B"></path>
                    <path d="M22.734375,14.9179688 C23.7109375,14.9179688 24.4609375,14.5703125 24.984375,13.875 C25.5078125,13.1796875 25.7695312,12.1914062 25.7695312,10.9101562 C25.7695312,9.62890625 25.5078125,8.64257812 24.984375,7.95117188 C24.4609375,7.25976562 23.7109375,6.9140625 22.734375,6.9140625 C21.7578125,6.9140625 21.0058594,7.25976562 20.4785156,7.95117188 C19.9511719,8.64257812 19.6875,9.62890625 19.6875,10.9101562 C19.6875,12.1914062 19.9511719,13.1796875 20.4785156,13.875 C21.0058594,14.5703125 21.7578125,14.9179688 22.734375,14.9179688 Z M29.2734375,10.9101562 C29.2734375,12.7851562 28.734375,14.3886719 27.65625,15.7207031 C26.578125,17.0527344 24.9414062,17.71875 22.7460938,17.71875 C20.5507812,17.71875 18.9140625,17.0527344 17.8359375,15.7207031 C16.7578125,14.3886719 16.21875,12.7851562 16.21875,10.9101562 C16.21875,9.06640625 16.7578125,7.46875 17.8359375,6.1171875 C18.9140625,4.765625 20.5507812,4.08984375 22.7460938,4.08984375 C24.9414062,4.08984375 26.578125,4.765625 27.65625,6.1171875 C28.734375,7.46875 29.2734375,9.06640625 29.2734375,10.9101562 Z" id="o"></path>
                    <path d="M37.3945312,14.9179688 C38.3710938,14.9179688 39.1210938,14.5703125 39.6445312,13.875 C40.1679688,13.1796875 40.4296875,12.1914062 40.4296875,10.9101562 C40.4296875,9.62890625 40.1679688,8.64257812 39.6445312,7.95117188 C39.1210938,7.25976562 38.3710938,6.9140625 37.3945312,6.9140625 C36.4179688,6.9140625 35.6660156,7.25976562 35.1386719,7.95117188 C34.6113281,8.64257812 34.3476562,9.62890625 34.3476562,10.9101562 C34.3476562,12.1914062 34.6113281,13.1796875 35.1386719,13.875 C35.6660156,14.5703125 36.4179688,14.9179688 37.3945312,14.9179688 Z M43.9335938,10.9101562 C43.9335938,12.7851562 43.3945312,14.3886719 42.3164062,15.7207031 C41.2382812,17.0527344 39.6015625,17.71875 37.40625,17.71875 C35.2109375,17.71875 33.5742188,17.0527344 32.4960938,15.7207031 C31.4179688,14.3886719 30.8789062,12.7851562 30.8789062,10.9101562 C30.8789062,9.06640625 31.4179688,7.46875 32.4960938,6.1171875 C33.5742188,4.765625 35.2109375,4.08984375 37.40625,4.08984375 C39.6015625,4.08984375 41.2382812,4.765625 42.3164062,6.1171875 C43.3945312,7.46875 43.9335938,9.06640625 43.9335938,10.9101562 Z" id="o"></path>
                    <polygon id="k" points="46.2890625 0.05859375 49.5703125 0.05859375 49.5703125 9.36328125 53.7304688 4.55859375 57.8671875 4.55859375 53.4023438 9.4453125 58.0429688 17.2734375 54.0117188 17.2734375 50.953125 11.8125 49.5703125 13.2539062 49.5703125 17.2734375 46.2890625 17.2734375"></polygon>
                    <path d="M60.1875,19.7226562 L60.609375,19.7460938 C60.9375,19.7617188 61.25,19.75 61.546875,19.7109375 C61.84375,19.671875 62.09375,19.5820312 62.296875,19.4414062 C62.4921875,19.3085938 62.6738281,19.03125 62.8417969,18.609375 C63.0097656,18.1875 63.078125,17.9296875 63.046875,17.8359375 L58.359375,4.5 L62.0742188,4.5 L64.8632812,13.921875 L67.5,4.5 L71.0507812,4.5 L66.6679688,17.0625 C65.8242188,19.484375 65.15625,20.9863281 64.6640625,21.5683594 C64.171875,22.1503906 63.1875,22.4414062 61.7109375,22.4414062 C61.4140625,22.4414062 61.1757812,22.4394531 60.9960938,22.4355469 C60.8164062,22.4316406 60.546875,22.4179688 60.1875,22.3945312 L60.1875,19.7226562 Z" id="y"></path>
                    <path d="M80.0625,11.0625 C79.8515625,11.1953125 79.6386719,11.3027344 79.4238281,11.3847656 C79.2089844,11.4667969 78.9140625,11.5429688 78.5390625,11.6132812 L77.7890625,11.7539062 C77.0859375,11.8789062 76.5820312,12.03125 76.2773438,12.2109375 C75.7617188,12.515625 75.5039062,12.9882812 75.5039062,13.6289062 C75.5039062,14.1992188 75.6621094,14.6113281 75.9785156,14.8652344 C76.2949219,15.1191406 76.6796875,15.2460938 77.1328125,15.2460938 C77.8515625,15.2460938 78.5136719,15.0351562 79.1191406,14.6132812 C79.7246094,14.1914062 80.0390625,13.421875 80.0625,12.3046875 L80.0625,11.0625 Z M78.0351562,9.50390625 C78.6523438,9.42578125 79.09375,9.328125 79.359375,9.2109375 C79.8359375,9.0078125 80.0742188,8.69140625 80.0742188,8.26171875 C80.0742188,7.73828125 79.8925781,7.37695312 79.5292969,7.17773438 C79.1660156,6.97851562 78.6328125,6.87890625 77.9296875,6.87890625 C77.140625,6.87890625 76.5820312,7.07421875 76.2539062,7.46484375 C76.0195312,7.75390625 75.8632812,8.14453125 75.7851562,8.63671875 L72.5625,8.63671875 C72.6328125,7.51953125 72.9453125,6.6015625 73.5,5.8828125 C74.3828125,4.7578125 75.8984375,4.1953125 78.046875,4.1953125 C79.4453125,4.1953125 80.6875,4.47265625 81.7734375,5.02734375 C82.859375,5.58203125 83.4023438,6.62890625 83.4023438,8.16796875 L83.4023438,14.0273438 C83.4023438,14.4335938 83.4101562,14.9257812 83.4257812,15.5039062 C83.4492188,15.9414062 83.515625,16.2382812 83.625,16.3945312 C83.734375,16.5507812 83.8984375,16.6796875 84.1171875,16.78125 L84.1171875,17.2734375 L80.484375,17.2734375 C80.3828125,17.015625 80.3125,16.7734375 80.2734375,16.546875 C80.234375,16.3203125 80.203125,16.0625 80.1796875,15.7734375 C79.71875,16.2734375 79.1875,16.6992188 78.5859375,17.0507812 C77.8671875,17.4648438 77.0546875,17.671875 76.1484375,17.671875 C74.9921875,17.671875 74.0371094,17.3417969 73.2832031,16.6816406 C72.5292969,16.0214844 72.1523438,15.0859375 72.1523438,13.875 C72.1523438,12.3046875 72.7578125,11.1679688 73.96875,10.4648438 C74.6328125,10.0820312 75.609375,9.80859375 76.8984375,9.64453125 L78.0351562,9.50390625 Z" id="a"></path>
                    <path d="M93.3046875,4.1953125 C93.3671875,4.1953125 93.4199219,4.19726562 93.4628906,4.20117188 C93.5058594,4.20507812 93.6015625,4.2109375 93.75,4.21875 L93.75,7.640625 C93.5390625,7.6171875 93.3515625,7.6015625 93.1875,7.59375 C93.0234375,7.5859375 92.890625,7.58203125 92.7890625,7.58203125 C91.4453125,7.58203125 90.5429688,8.01953125 90.0820312,8.89453125 C89.8242188,9.38671875 89.6953125,10.1445312 89.6953125,11.1679688 L89.6953125,17.2734375 L86.3320312,17.2734375 L86.3320312,4.5 L89.5195312,4.5 L89.5195312,6.7265625 C90.0351562,5.875 90.484375,5.29296875 90.8671875,4.98046875 C91.4921875,4.45703125 92.3046875,4.1953125 93.3046875,4.1953125 Z" id="r"></path>
                    <path d="M100.417969,4.1953125 C101.191406,4.1953125 101.878906,4.36523438 102.480469,4.70507812 C103.082031,5.04492188 103.570312,5.515625 103.945312,6.1171875 L103.945312,0.0234375 L107.332031,0.0234375 L107.332031,17.2734375 L104.085938,17.2734375 L104.085938,15.5039062 C103.609375,16.2617188 103.066406,16.8125 102.457031,17.15625 C101.847656,17.5 101.089844,17.671875 100.183594,17.671875 C98.6914062,17.671875 97.4355469,17.0683594 96.4160156,15.8613281 C95.3964844,14.6542969 94.8867188,13.1054688 94.8867188,11.2148438 C94.8867188,9.03515625 95.3886719,7.3203125 96.3925781,6.0703125 C97.3964844,4.8203125 98.7382812,4.1953125 100.417969,4.1953125 Z M101.144531,14.859375 C102.089844,14.859375 102.808594,14.5078125 103.300781,13.8046875 C103.792969,13.1015625 104.039062,12.1914062 104.039062,11.0742188 C104.039062,9.51171875 103.644531,8.39453125 102.855469,7.72265625 C102.371094,7.31640625 101.808594,7.11328125 101.167969,7.11328125 C100.191406,7.11328125 99.4746094,7.48242188 99.0175781,8.22070312 C98.5605469,8.95898438 98.3320312,9.875 98.3320312,10.96875 C98.3320312,12.1484375 98.5644531,13.0917969 99.0292969,13.7988281 C99.4941406,14.5058594 100.199219,14.859375 101.144531,14.859375 Z" id="d"></path>
                </g>
                <g id="by-CEPIXEL" transform="translate(53.420410, 29.866211)" fill="#222222" fill-rule="nonzero">
                    <path d="M2.04736328,1.32617188 C2.53727214,1.32617188 2.9206543,1.50276693 3.19750977,1.85595703 C3.47436523,2.20914714 3.61279297,2.6648763 3.61279297,3.22314453 C3.61279297,3.80192057 3.47607422,4.28157552 3.20263672,4.66210938 C2.92919922,5.04264323 2.54752604,5.23291016 2.05761719,5.23291016 C1.75,5.23291016 1.50276693,5.17138672 1.31591797,5.04833984 C1.20426432,4.97542318 1.08349609,4.84781901 0.953613281,4.66552734 L0.953613281,5.13378906 L0,5.13378906 L0,0.102539062 L0.970703125,0.102539062 L0.970703125,1.89355469 C1.09375,1.7203776 1.22932943,1.58821615 1.37744141,1.49707031 C1.55289714,1.38313802 1.77620443,1.32617188 2.04736328,1.32617188 Z M1.79785156,4.4296875 C2.0485026,4.4296875 2.24332682,4.32828776 2.38232422,4.12548828 C2.52132161,3.9226888 2.59082031,3.65608724 2.59082031,3.32568359 C2.59082031,3.06136068 2.55664062,2.84261068 2.48828125,2.66943359 C2.35839844,2.34130859 2.11914062,2.17724609 1.77050781,2.17724609 C1.41731771,2.17724609 1.17464193,2.33789062 1.04248047,2.65917969 C0.974121094,2.83007812 0.939941406,3.05110677 0.939941406,3.32226562 C0.939941406,3.64127604 1.01057943,3.90559896 1.15185547,4.11523438 C1.29313151,4.32486979 1.50846354,4.4296875 1.79785156,4.4296875 Z" id="b"></path>
                    <path d="M6.03544922,5.84814453 L6.15849609,5.85498047 C6.25419922,5.85953776 6.34534505,5.85611979 6.43193359,5.84472656 C6.51852214,5.83333333 6.5914388,5.80712891 6.65068359,5.76611328 C6.70764974,5.7273763 6.76062826,5.64648438 6.80961914,5.5234375 C6.85861003,5.40039062 6.87854818,5.32519531 6.86943359,5.29785156 L5.50224609,1.40820312 L6.58574219,1.40820312 L7.39921875,4.15625 L8.16826172,1.40820312 L9.20390625,1.40820312 L7.92558594,5.07226562 C7.67949219,5.77864583 7.48466797,6.21671549 7.34111328,6.38647461 C7.19755859,6.55623372 6.91044922,6.64111328 6.47978516,6.64111328 C6.39319661,6.64111328 6.32369792,6.64054362 6.27128906,6.6394043 C6.21888021,6.63826497 6.14026693,6.63427734 6.03544922,6.62744141 L6.03544922,5.84814453 Z" id="y"></path>
                    <path d="M14.7328125,2.65576172 C14.7328125,1.77620443 14.9686523,1.09830729 15.440332,0.622070312 C15.8504883,0.207356771 16.3722982,0 17.0057617,0 C17.853418,0 18.4732096,0.277994792 18.8651367,0.833984375 C19.0816081,1.14615885 19.197819,1.45947266 19.2137695,1.77392578 L18.1610352,1.77392578 C18.0926758,1.53238932 18.0049479,1.35009766 17.8978516,1.22705078 C17.7064453,1.00830078 17.4227539,0.898925781 17.0467773,0.898925781 C16.6639648,0.898925781 16.3620443,1.05330404 16.1410156,1.36206055 C15.919987,1.67081706 15.8094727,2.1077474 15.8094727,2.67285156 C15.8094727,3.23795573 15.9262533,3.66121419 16.1598145,3.94262695 C16.3933757,4.22403971 16.6901693,4.36474609 17.0501953,4.36474609 C17.4193359,4.36474609 17.7007487,4.24397786 17.8944336,4.00244141 C18.0015299,3.87255859 18.0903971,3.67773438 18.1610352,3.41796875 L19.2035156,3.41796875 C19.1123698,3.9671224 18.8793783,4.41373698 18.504541,4.7578125 C18.1297038,5.10188802 17.6494792,5.27392578 17.0638672,5.27392578 C16.3392578,5.27392578 15.7695964,5.04150391 15.3548828,4.57666016 C14.9401693,4.10953776 14.7328125,3.46923828 14.7328125,2.65576172 Z" id="C"></path>
                    <polygon id="E" points="25.3073242 0.987792969 22.6413086 0.987792969 22.6413086 2.05761719 25.0885742 2.05761719 25.0885742 2.93261719 22.6413086 2.93261719 22.6413086 4.22802734 25.4303711 4.22802734 25.4303711 5.13378906 21.6125 5.13378906 21.6125 0.095703125 25.3073242 0.095703125"></polygon>
                    <path d="M30.6625977,1.69873047 C30.6625977,1.4366862 30.5936686,1.24983724 30.4558105,1.13818359 C30.3179525,1.02652995 30.1248372,0.970703125 29.8764648,0.970703125 L28.8955078,0.970703125 L28.8955078,2.45410156 L29.8764648,2.45410156 C30.1248372,2.45410156 30.3179525,2.39371745 30.4558105,2.27294922 C30.5936686,2.15218099 30.6625977,1.96077474 30.6625977,1.69873047 Z M31.7050781,1.69189453 C31.7050781,2.28662109 31.5546875,2.70703125 31.2539062,2.953125 C30.953125,3.19921875 30.5236003,3.32226562 29.965332,3.32226562 L28.8955078,3.32226562 L28.8955078,5.13378906 L27.8496094,5.13378906 L27.8496094,0.095703125 L30.0439453,0.095703125 C30.5498047,0.095703125 30.953125,0.225585938 31.2539062,0.485351562 C31.5546875,0.745117188 31.7050781,1.14729818 31.7050781,1.69189453 Z" id="P"></path>
                    <polygon id="I" points="35.0334961 5.13378906 33.9875977 5.13378906 33.9875977 0.095703125 35.0334961 0.095703125"></polygon>
                    <polygon id="X" points="38.3926758 5.13378906 37.169043 5.13378906 38.7891602 2.56689453 37.2476563 0.095703125 38.5054688 0.095703125 39.4043945 1.73291016 40.3272461 0.095703125 41.544043 0.095703125 40.0025391 2.52587891 41.6397461 5.13378906 40.3614258 5.13378906 39.4043945 3.41796875"></polygon>
                    <polygon id="E" points="47.5589844 0.987792969 44.8929688 0.987792969 44.8929688 2.05761719 47.3402344 2.05761719 47.3402344 2.93261719 44.8929688 2.93261719 44.8929688 4.22802734 47.6820313 4.22802734 47.6820313 5.13378906 43.8641602 5.13378906 43.8641602 0.095703125 47.5589844 0.095703125"></polygon>
                    <polygon id="L" points="50.0773438 0.095703125 51.1300781 0.095703125 51.1300781 4.22802734 53.6251953 4.22802734 53.6251953 5.13378906 50.0773438 5.13378906"></polygon>
                </g>
            </g>
        </g>
    </g>
</svg>